<svg width="55" height="77" viewBox="0 0 55 77" fill="none" xmlns="http://www.w3.org/2000/svg">
<path d="M24.5944 1.43841L1.2121 19.541C-0.404033 20.7922 -0.404033 22.8155 1.2121 24.0534L5.09769 27.0616C6.71382 28.3128 9.32713 28.3128 10.9261 27.0616L27.5 14.23L44.0739 27.0616C45.6901 28.3128 48.3034 28.3128 49.9023 27.0616L53.7879 24.0534C55.404 22.8022 55.404 20.7789 53.7879 19.541L30.4056 1.43841C28.8239 0.187199 26.2105 0.187199 24.5944 1.43841V1.43841Z" fill="#8D3B95"/>
<path d="M24.5944 75.5616L1.2121 57.459C-0.404033 56.2078 -0.404033 54.1845 1.2121 52.9466L5.09769 49.9384C6.71382 48.6872 9.32713 48.6872 10.9261 49.9384L27.5 62.77L44.0739 49.9384C45.6901 48.6872 48.3034 48.6872 49.9023 49.9384L53.7879 52.9466C55.404 54.1978 55.404 56.2211 53.7879 57.459L30.4056 75.5616C28.8239 76.8128 26.2105 76.8128 24.5944 75.5616V75.5616Z" fill="#8D3B95"/>
</svg>
