<svg width="80" height="60" viewBox="0 0 80 60" fill="none" xmlns="http://www.w3.org/2000/svg">
<path d="M45.9859 55.9812L42.0221 59.0314C40.3437 60.3229 37.6297 60.3229 35.9692 59.0314L1.25879 32.3357C-0.419596 31.0442 -0.419596 28.9558 1.25879 27.678L35.9692 0.968628C37.6476 -0.322876 40.3616 -0.322876 42.0221 0.968628L45.9859 4.01878C47.6822 5.32402 47.6465 7.45363 45.9145 8.73139L24.3991 24.5042H75.7148C78.0895 24.5042 80 25.9744 80 27.8017V32.1983C80 34.0256 78.0895 35.4958 75.7148 35.4958H24.3991L45.9145 51.2686C47.6643 52.5464 47.7 54.676 45.9859 55.9812Z" fill="black"/>
</svg>
